<svg xmlns="http://www.w3.org/2000/svg" xmlns:xlink="http://www.w3.org/1999/xlink" width="944" zoomAndPan="magnify" viewBox="0 0 708 360.749986" height="481" preserveAspectRatio="xMidYMid meet" version="1.0"><defs><g/><clipPath id="25467d4c72"><path d="M 1 21.671875 L 216 21.671875 L 216 336 L 1 336 Z M 1 21.671875 " clip-rule="nonzero"/></clipPath></defs><g clip-path="url(#25467d4c72)"><path fill="#bf0007" d="M 189.226562 157.957031 C 189.226562 157.957031 189.082031 157.8125 188.863281 157.523438 C 188.140625 156.726562 187.488281 156.003906 186.765625 155.207031 C 173.882812 140.804688 115.542969 95.929688 108.453125 21.742188 C 108.453125 21.742188 101.863281 68.714844 27.605469 157.957031 C 10.449219 177.644531 0.246094 203.703125 1.1875 232.21875 C 2.996094 287.804688 47.796875 333.261719 103.386719 335.867188 C 164.980469 338.6875 215.863281 289.617188 215.863281 228.601562 C 215.863281 201.53125 205.800781 176.851562 189.226562 157.957031 Z M 189.226562 157.957031 " fill-opacity="1" fill-rule="nonzero"/></g><path fill="#ffffff" d="M 109.246094 293.453125 C 107.871094 293.453125 106.859375 292.4375 106.714844 291.136719 L 96.507812 174.460938 L 82.902344 255.378906 C 82.683594 256.539062 81.671875 257.480469 80.511719 257.480469 C 79.355469 257.550781 78.269531 256.753906 77.980469 255.597656 L 69.003906 219.84375 L 61.765625 237.140625 C 61.40625 238.082031 60.464844 238.660156 59.449219 238.660156 L 35.058594 238.660156 C 33.683594 238.660156 32.527344 237.503906 32.527344 236.128906 C 32.527344 234.753906 33.683594 233.59375 35.058594 233.59375 L 57.714844 233.59375 L 67.269531 210.867188 C 67.703125 209.855469 68.714844 209.273438 69.800781 209.347656 C 70.886719 209.421875 71.828125 210.214844 72.042969 211.230469 L 79.863281 242.570312 L 94.699219 154.050781 C 94.917969 152.820312 96.003906 151.878906 97.304688 151.953125 C 98.609375 152.023438 99.621094 152.964844 99.695312 154.265625 L 109.609375 267.179688 L 118.511719 196.753906 C 118.65625 195.523438 119.671875 194.582031 120.902344 194.511719 C 122.132812 194.4375 123.214844 195.234375 123.507812 196.464844 L 134.363281 240.324219 L 140.007812 200.082031 C 140.152344 198.851562 141.167969 197.984375 142.398438 197.910156 C 143.628906 197.839844 144.714844 198.707031 145.003906 199.867188 L 152.964844 235.1875 L 181.769531 235.1875 C 183.144531 235.1875 184.304688 236.34375 184.304688 237.71875 C 184.304688 239.09375 183.144531 240.253906 181.769531 240.253906 L 150.9375 240.253906 C 149.78125 240.253906 148.695312 239.457031 148.476562 238.300781 L 143.121094 214.488281 L 137.546875 254.003906 C 137.402344 255.234375 136.390625 256.105469 135.160156 256.175781 C 133.929688 256.25 132.84375 255.453125 132.554688 254.222656 L 121.839844 210.796875 L 111.707031 291.136719 C 111.636719 292.511719 110.550781 293.453125 109.246094 293.453125 Z M 109.246094 293.453125 " fill-opacity="1" fill-rule="nonzero"/><g fill="#bf0007" fill-opacity="1"><g transform="translate(209.155843, 170.473685)"><g><path d="M 42.1875 1.03125 C 41.425781 1.257812 39.753906 1.375 37.171875 1.375 C 29.265625 1.375 22.972656 -0.03125 18.296875 -2.84375 C 13.628906 -5.65625 10.25 -9.953125 8.15625 -15.734375 C 6.0625 -21.515625 5.015625 -29.078125 5.015625 -38.421875 C 5.015625 -47.773438 6.0625 -55.394531 8.15625 -61.28125 C 10.25 -67.175781 13.648438 -71.585938 18.359375 -74.515625 C 23.066406 -77.441406 29.335938 -78.90625 37.171875 -78.90625 C 45.003906 -78.90625 51.273438 -77.441406 55.984375 -74.515625 C 60.703125 -71.585938 64.101562 -67.160156 66.1875 -61.234375 C 68.28125 -55.304688 69.328125 -47.664062 69.328125 -38.3125 C 69.328125 -21.4375 65.335938 -10.070312 57.359375 -4.21875 L 66.828125 11.0625 L 52.453125 17.78125 Z M 37.171875 -12.3125 C 41.273438 -12.3125 44.484375 -13.164062 46.796875 -14.875 C 49.117188 -16.59375 50.753906 -19.3125 51.703125 -23.03125 C 52.660156 -26.757812 53.140625 -31.851562 53.140625 -38.3125 C 53.140625 -44.769531 52.644531 -49.9375 51.65625 -53.8125 C 50.664062 -57.695312 49.007812 -60.566406 46.6875 -62.421875 C 44.375 -64.285156 41.203125 -65.21875 37.171875 -65.21875 C 33.140625 -65.21875 29.960938 -64.285156 27.640625 -62.421875 C 25.328125 -60.566406 23.675781 -57.695312 22.6875 -53.8125 C 21.695312 -49.9375 21.203125 -44.769531 21.203125 -38.3125 C 21.203125 -32.3125 21.617188 -27.46875 22.453125 -23.78125 C 23.296875 -20.09375 24.875 -17.257812 27.1875 -15.28125 C 29.507812 -13.300781 32.835938 -12.3125 37.171875 -12.3125 Z M 37.171875 -12.3125 "/></g></g></g><g fill="#bf0007" fill-opacity="1"><g transform="translate(282.36074, 170.473685)"><g><path d="M 47.890625 -14.03125 L 20.75 -14.03125 L 17.671875 0 L 1.9375 0 L 19.390625 -77.546875 L 49.265625 -77.546875 L 66.703125 0 L 50.96875 0 Z M 37.0625 -64.546875 L 31.59375 -64.546875 L 23.71875 -27.703125 L 44.921875 -27.703125 Z M 37.0625 -64.546875 "/></g></g></g><g fill="#bf0007" fill-opacity="1"><g transform="translate(346.785418, 170.473685)"><g><path d="M 22.234375 -63.625 L 1.484375 -63.625 L 1.484375 -77.546875 L 58.5 -77.546875 L 58.5 -63.625 L 37.96875 -63.625 L 37.96875 0 L 22.234375 0 Z M 22.234375 -63.625 "/></g></g></g><g fill="#bf0007" fill-opacity="1"><g transform="translate(406.763315, 170.473685)"><g><path d="M 8.4375 -77.546875 L 38.546875 -77.546875 C 56.785156 -77.546875 65.90625 -69.03125 65.90625 -52 C 65.90625 -41.882812 62.101562 -34.429688 54.5 -29.640625 L 65.5625 0 L 48.34375 0 L 39.34375 -26 L 24.171875 -26 L 24.171875 0 L 8.4375 0 Z M 38.765625 -39.453125 C 42.335938 -39.453125 45.070312 -40.570312 46.96875 -42.8125 C 48.875 -45.0625 49.828125 -48.085938 49.828125 -51.890625 C 49.828125 -55.679688 48.835938 -58.660156 46.859375 -60.828125 C 44.890625 -62.992188 42.117188 -64.078125 38.546875 -64.078125 L 24.171875 -64.078125 L 24.171875 -39.453125 Z M 38.765625 -39.453125 "/></g></g></g><g fill="#bf0007" fill-opacity="1"><g transform="translate(476.547438, 170.473685)"><g><path d="M 47.890625 -14.03125 L 20.75 -14.03125 L 17.671875 0 L 1.9375 0 L 19.390625 -77.546875 L 49.265625 -77.546875 L 66.703125 0 L 50.96875 0 Z M 37.0625 -64.546875 L 31.59375 -64.546875 L 23.71875 -27.703125 L 44.921875 -27.703125 Z M 37.0625 -64.546875 "/></g></g></g><g fill="#bf0007" fill-opacity="1"><g transform="translate(545.191375, 170.473685)"><g><path d="M 68.765625 -77.546875 L 68.765625 0 L 53.03125 0 L 53.03125 -32.15625 L 24.171875 -32.15625 L 24.171875 0 L 8.4375 0 L 8.4375 -77.546875 L 24.171875 -77.546875 L 24.171875 -45.84375 L 53.03125 -45.84375 L 53.03125 -77.546875 Z M 68.765625 -77.546875 "/></g></g></g><g fill="#101727" fill-opacity="1"><g transform="translate(242.390621, 272.403039)"><g><path d="M 68.765625 -77.546875 L 68.765625 0 L 53.03125 0 L 53.03125 -32.15625 L 24.171875 -32.15625 L 24.171875 0 L 8.4375 0 L 8.4375 -77.546875 L 24.171875 -77.546875 L 24.171875 -45.84375 L 53.03125 -45.84375 L 53.03125 -77.546875 Z M 68.765625 -77.546875 "/></g></g></g><g fill="#101727" fill-opacity="1"><g transform="translate(319.586511, 272.403039)"><g><path d="M 47.890625 -14.03125 L 20.75 -14.03125 L 17.671875 0 L 1.9375 0 L 19.390625 -77.546875 L 49.265625 -77.546875 L 66.703125 0 L 50.96875 0 Z M 37.0625 -64.546875 L 31.59375 -64.546875 L 23.71875 -27.703125 L 44.921875 -27.703125 Z M 37.0625 -64.546875 "/></g></g></g><g fill="#101727" fill-opacity="1"><g transform="translate(382.186652, 272.403039)"><g><path d="M 23.953125 -31.359375 L 0 -77.546875 L 17.453125 -77.546875 L 31.703125 -46.640625 L 45.953125 -77.546875 L 63.40625 -77.546875 L 39.6875 -31.359375 L 39.6875 0 L 23.953125 0 Z M 23.953125 -31.359375 "/></g></g></g><g fill="#101727" fill-opacity="1"><g transform="translate(439.655603, 272.403039)"><g><path d="M 47.890625 -14.03125 L 20.75 -14.03125 L 17.671875 0 L 1.9375 0 L 19.390625 -77.546875 L 49.265625 -77.546875 L 66.703125 0 L 50.96875 0 Z M 37.0625 -64.546875 L 31.59375 -64.546875 L 23.71875 -27.703125 L 44.921875 -27.703125 Z M 37.0625 -64.546875 "/></g></g></g><g fill="#101727" fill-opacity="1"><g transform="translate(504.080281, 272.403039)"><g><path d="M 22.234375 -63.625 L 1.484375 -63.625 L 1.484375 -77.546875 L 58.5 -77.546875 L 58.5 -63.625 L 37.96875 -63.625 L 37.96875 0 L 22.234375 0 Z M 22.234375 -63.625 "/></g></g></g><g fill="#000000" fill-opacity="1"><g transform="translate(564.058308, 272.403039)"><g/></g></g></svg>