<svg xmlns="http://www.w3.org/2000/svg" xmlns:xlink="http://www.w3.org/1999/xlink" width="841" zoomAndPan="magnify" viewBox="0 0 630.75 384.749986" height="513" preserveAspectRatio="xMidYMid meet" version="1.0"><defs><g/><clipPath id="02cb7c8a68"><path d="M 415 33.503906 L 630 33.503906 L 630 348 L 415 348 Z M 415 33.503906 " clip-rule="nonzero"/></clipPath></defs><g clip-path="url(#02cb7c8a68)"><path fill="#bf0007" d="M 603.363281 169.796875 C 603.363281 169.796875 603.21875 169.652344 603.003906 169.363281 C 602.277344 168.566406 601.628906 167.84375 600.902344 167.046875 C 588.019531 152.640625 529.679688 107.765625 522.585938 33.574219 C 522.585938 33.574219 516 80.550781 441.738281 169.796875 C 424.582031 189.484375 414.375 215.542969 415.316406 244.058594 C 417.125 299.648438 461.929688 345.105469 517.519531 347.710938 C 579.117188 350.535156 630 301.457031 630 240.441406 C 630 213.371094 619.941406 188.6875 603.363281 169.796875 Z M 603.363281 169.796875 " fill-opacity="1" fill-rule="nonzero"/></g><path fill="#ffffff" d="M 523.382812 305.296875 C 522.007812 305.296875 520.996094 304.28125 520.851562 302.980469 L 510.644531 186.300781 L 497.035156 267.222656 C 496.820312 268.378906 495.804688 269.320312 494.648438 269.320312 C 493.488281 269.394531 492.402344 268.597656 492.113281 267.4375 L 483.140625 231.683594 L 475.902344 248.980469 C 475.539062 249.921875 474.597656 250.5 473.585938 250.5 L 449.191406 250.5 C 447.816406 250.5 446.660156 249.34375 446.660156 247.96875 C 446.660156 246.59375 447.816406 245.433594 449.191406 245.433594 L 471.847656 245.433594 L 481.402344 222.707031 C 481.835938 221.695312 482.847656 221.113281 483.933594 221.1875 C 485.019531 221.257812 485.960938 222.054688 486.179688 223.070312 L 493.996094 254.410156 L 508.835938 165.886719 C 509.050781 164.65625 510.136719 163.714844 511.441406 163.789062 C 512.742188 163.859375 513.757812 164.800781 513.828125 166.105469 L 523.746094 279.019531 L 532.648438 208.59375 C 532.792969 207.363281 533.804688 206.421875 535.035156 206.347656 C 536.265625 206.277344 537.351562 207.074219 537.640625 208.304688 L 548.5 252.167969 L 554.144531 211.921875 C 554.289062 210.691406 555.304688 209.824219 556.535156 209.75 C 557.765625 209.679688 558.851562 210.546875 559.140625 211.707031 L 567.101562 247.027344 L 595.910156 247.027344 C 597.285156 247.027344 598.441406 248.1875 598.441406 249.5625 C 598.441406 250.9375 597.285156 252.09375 595.910156 252.09375 L 565.074219 252.09375 C 563.917969 252.09375 562.832031 251.296875 562.613281 250.140625 L 557.257812 226.328125 L 551.683594 265.847656 C 551.539062 267.078125 550.527344 267.945312 549.296875 268.019531 C 548.066406 268.089844 546.980469 267.292969 546.691406 266.0625 L 535.976562 222.636719 L 525.84375 302.980469 C 525.773438 304.355469 524.6875 305.296875 523.382812 305.296875 Z M 523.382812 305.296875 " fill-opacity="1" fill-rule="nonzero"/><g fill="#bf0007" fill-opacity="1"><g transform="translate(150.772533, 171.068888)"><g><path d="M 4.5625 0 Z M 35.6875 -58.15625 C 39.945312 -58.15625 45.039062 -58.003906 50.96875 -57.703125 C 56.894531 -57.398438 61.078125 -57.054688 63.515625 -56.671875 L 63.515625 0 L 35.125 0 C 27.59375 0 21.660156 -0.796875 17.328125 -2.390625 C 12.992188 -3.992188 9.78125 -6.90625 7.6875 -11.125 C 5.601562 -15.34375 4.5625 -21.476562 4.5625 -29.53125 C 4.5625 -37.207031 5.546875 -43.078125 7.515625 -47.140625 C 9.492188 -51.210938 12.6875 -54.066406 17.09375 -55.703125 C 21.507812 -57.335938 27.707031 -58.15625 35.6875 -58.15625 Z M 19.84375 -29.53125 C 19.84375 -25.269531 20.390625 -22.019531 21.484375 -19.78125 C 22.585938 -17.539062 24.28125 -16 26.5625 -15.15625 C 28.84375 -14.320312 31.960938 -13.90625 35.921875 -13.90625 L 48.234375 -13.90625 L 48.234375 -43.671875 C 44.429688 -44.054688 40.441406 -44.25 36.265625 -44.25 C 32.078125 -44.25 28.820312 -43.828125 26.5 -42.984375 C 24.1875 -42.148438 22.5 -40.6875 21.4375 -38.59375 C 20.375 -36.507812 19.84375 -33.488281 19.84375 -29.53125 Z M 22.46875 -81.875 L 34.21875 -81.875 L 34.21875 -67.625 L 22.46875 -67.625 Z M 39.796875 -81.875 L 51.546875 -81.875 L 51.546875 -67.625 L 39.796875 -67.625 Z M 39.796875 -81.875 "/></g></g></g><g fill="#bf0007" fill-opacity="1"><g transform="translate(219.989565, 171.068888)"><g><path d="M 50.75 0 L 31.921875 0 C 31.847656 8.96875 30.234375 15.921875 27.078125 20.859375 C 23.921875 25.804688 19.191406 28.28125 12.890625 28.28125 C 11.898438 28.28125 9.125 28.128906 4.5625 27.828125 L 4.5625 14.140625 L 8.4375 14.375 C 11.175781 14.375 13.226562 13.289062 14.59375 11.125 C 15.96875 8.957031 16.65625 5.894531 16.65625 1.9375 L 16.65625 -57.015625 L 31.921875 -57.015625 L 31.921875 -13.90625 L 50.75 -13.90625 Z M 50.75 0 "/></g></g></g><g fill="#bf0007" fill-opacity="1"><g transform="translate(270.736654, 171.068888)"><g><path d="M 92.703125 -13.90625 L 92.703125 0 L 0 0 L 0 -13.90625 L 9.578125 -13.90625 L 9.578125 -79.828125 L 24.859375 -79.828125 L 24.859375 -38.765625 C 28.273438 -43.023438 31.367188 -46.484375 34.140625 -49.140625 C 36.921875 -51.804688 40.171875 -53.972656 43.890625 -55.640625 C 47.617188 -57.316406 51.914062 -58.15625 56.78125 -58.15625 C 66.363281 -58.15625 73.148438 -55.207031 77.140625 -49.3125 C 81.128906 -43.425781 83.125 -36.53125 83.125 -28.625 L 83.125 -13.90625 Z M 53.359375 -44.25 C 48.347656 -44.25 43.710938 -42.191406 39.453125 -38.078125 C 35.191406 -33.972656 31.691406 -29.429688 28.953125 -24.453125 C 26.222656 -19.472656 24.859375 -16.300781 24.859375 -14.9375 L 24.859375 -13.90625 L 67.84375 -13.90625 L 67.84375 -25.65625 C 67.84375 -30.90625 66.566406 -35.316406 64.015625 -38.890625 C 61.472656 -42.460938 57.921875 -44.25 53.359375 -44.25 Z M 53.359375 -44.25 "/></g></g></g><g fill="#bf0007" fill-opacity="1"><g transform="translate(363.449869, 171.068888)"><g><path d="M 0 0 Z M 63.515625 -55.421875 L 63.515625 0 L 0 0 L 0 -13.90625 L 12.203125 -13.90625 C 10.910156 -18.550781 10.265625 -23.796875 10.265625 -29.640625 C 10.265625 -36.566406 11.347656 -42.003906 13.515625 -45.953125 C 15.679688 -49.910156 18.96875 -52.722656 23.375 -54.390625 C 27.78125 -56.066406 33.597656 -56.90625 40.828125 -56.90625 C 47.210938 -56.90625 52.796875 -56.640625 57.578125 -56.109375 Z M 25.765625 -26.796875 C 25.765625 -23.910156 25.953125 -21.570312 26.328125 -19.78125 C 26.710938 -18 27.25 -16.039062 27.9375 -13.90625 L 48.234375 -13.90625 L 48.234375 -42.984375 C 44.890625 -43.210938 42.265625 -43.328125 40.359375 -43.328125 C 36.253906 -43.328125 33.195312 -42.867188 31.1875 -41.953125 C 29.175781 -41.046875 27.769531 -39.453125 26.96875 -37.171875 C 26.164062 -34.890625 25.765625 -31.429688 25.765625 -26.796875 Z M 23.484375 -81.875 L 35.234375 -81.875 L 35.234375 -67.625 L 23.484375 -67.625 Z M 40.8125 -81.875 L 52.5625 -81.875 L 52.5625 -67.625 L 40.8125 -67.625 Z M 40.8125 -81.875 "/></g></g></g><g fill="#101727" fill-opacity="1"><g transform="translate(182.076409, 296.237547)"><g><path d="M 4.5625 0 Z M 35.6875 -58.15625 C 39.945312 -58.15625 45.039062 -58.003906 50.96875 -57.703125 C 56.894531 -57.398438 61.078125 -57.054688 63.515625 -56.671875 L 63.515625 0 L 35.125 0 C 27.59375 0 21.660156 -0.796875 17.328125 -2.390625 C 12.992188 -3.992188 9.78125 -6.90625 7.6875 -11.125 C 5.601562 -15.34375 4.5625 -21.476562 4.5625 -29.53125 C 4.5625 -37.207031 5.546875 -43.078125 7.515625 -47.140625 C 9.492188 -51.210938 12.6875 -54.066406 17.09375 -55.703125 C 21.507812 -57.335938 27.707031 -58.15625 35.6875 -58.15625 Z M 19.84375 -29.53125 C 19.84375 -25.269531 20.390625 -22.019531 21.484375 -19.78125 C 22.585938 -17.539062 24.28125 -16 26.5625 -15.15625 C 28.84375 -14.320312 31.960938 -13.90625 35.921875 -13.90625 L 48.234375 -13.90625 L 48.234375 -43.671875 C 44.429688 -44.054688 40.441406 -44.25 36.265625 -44.25 C 32.078125 -44.25 28.820312 -43.828125 26.5 -42.984375 C 24.1875 -42.148438 22.5 -40.6875 21.4375 -38.59375 C 20.375 -36.507812 19.84375 -33.488281 19.84375 -29.53125 Z M 22.46875 -81.875 L 34.21875 -81.875 L 34.21875 -67.625 L 22.46875 -67.625 Z M 39.796875 -81.875 L 51.546875 -81.875 L 51.546875 -67.625 L 39.796875 -67.625 Z M 39.796875 -81.875 "/></g></g></g><g fill="#101727" fill-opacity="1"><g transform="translate(251.293441, 296.237547)"><g><path d="M 35.578125 -13.90625 L 35.578125 0 L 9.125 0 L 9.125 -79.828125 L 24.40625 -79.828125 L 24.40625 -13.90625 Z M 35.578125 -13.90625 "/></g></g></g><g fill="#101727" fill-opacity="1"><g transform="translate(286.873415, 296.237547)"><g><path d="M 0 0 Z M 49.375 -13.90625 L 49.375 0 L 0 0 L 0 -13.90625 L 16.984375 -13.90625 L 16.984375 -57.015625 L 32.265625 -57.015625 L 32.265625 -13.90625 Z M 9.921875 9.125 L 21.671875 9.125 L 21.671875 23.375 L 9.921875 23.375 Z M 27.25 9.125 L 39 9.125 L 39 23.375 L 27.25 23.375 Z M 27.25 9.125 "/></g></g></g><g fill="#101727" fill-opacity="1"><g transform="translate(336.25204, 296.237547)"><g><path d="M 37.75 -58.15625 C 44.894531 -58.15625 50.082031 -56.648438 53.3125 -53.640625 C 56.539062 -50.640625 58.191406 -45.875 58.265625 -39.34375 L 58.265625 0 L 0 0 L 0 -13.90625 L 42.984375 -13.90625 L 42.984375 -35.34375 C 42.984375 -38.613281 42.28125 -41.066406 40.875 -42.703125 C 39.46875 -44.335938 37.054688 -45.15625 33.640625 -45.15625 C 26.640625 -44.925781 20.554688 -44.695312 15.390625 -44.46875 L 9.578125 -44.25 L 9.125 -54.390625 C 13.070312 -55.453125 17.859375 -56.34375 23.484375 -57.0625 C 29.109375 -57.789062 33.863281 -58.15625 37.75 -58.15625 Z M 37.75 -58.15625 "/></g></g></g></svg>